<mxfile host="app.diagrams.net" modified="2024-03-20T00:06:07.133Z" agent="Mozilla/5.0 (Windows NT 10.0; Win64; x64) AppleWebKit/537.36 (KHTML, like Gecko) Chrome/121.0.0.0 Safari/537.36 OPR/107.0.0.0" etag="GCvJEOYFqk8vjXGXyZ27" version="23.1.6" type="device">
  <diagram name="PÃ¡gina-1" id="9_k0z150Nkftz_5zXTxU">
    <mxGraphModel dx="839" dy="446" grid="1" gridSize="10" guides="1" tooltips="1" connect="1" arrows="1" fold="1" page="1" pageScale="1" pageWidth="827" pageHeight="1169" math="0" shadow="0">
      <root>
        <mxCell id="0" />
        <mxCell id="1" parent="0" />
        <mxCell id="PMLJe2PKNXVGRDKohlsJ-7" style="edgeStyle=orthogonalEdgeStyle;rounded=0;orthogonalLoop=1;jettySize=auto;html=1;" edge="1" parent="1" source="PMLJe2PKNXVGRDKohlsJ-2" target="PMLJe2PKNXVGRDKohlsJ-5">
          <mxGeometry relative="1" as="geometry" />
        </mxCell>
        <mxCell id="PMLJe2PKNXVGRDKohlsJ-2" value="&amp;nbsp;Desktop&lt;div&gt;&lt;br&gt;&lt;/div&gt;" style="sketch=0;outlineConnect=0;fontColor=#232F3E;gradientColor=none;fillColor=#232F3D;strokeColor=none;dashed=0;verticalLabelPosition=bottom;verticalAlign=top;align=center;html=1;fontSize=12;fontStyle=0;aspect=fixed;pointerEvents=1;shape=mxgraph.aws4.user;" vertex="1" parent="1">
          <mxGeometry x="170" y="122" width="78" height="78" as="geometry" />
        </mxCell>
        <mxCell id="PMLJe2PKNXVGRDKohlsJ-8" style="edgeStyle=orthogonalEdgeStyle;rounded=0;orthogonalLoop=1;jettySize=auto;html=1;" edge="1" parent="1" source="PMLJe2PKNXVGRDKohlsJ-4" target="PMLJe2PKNXVGRDKohlsJ-5">
          <mxGeometry relative="1" as="geometry">
            <Array as="points">
              <mxPoint x="392" y="319" />
            </Array>
          </mxGeometry>
        </mxCell>
        <mxCell id="PMLJe2PKNXVGRDKohlsJ-4" value="Mobile" style="sketch=0;outlineConnect=0;fontColor=#232F3E;gradientColor=none;fillColor=#232F3D;strokeColor=none;dashed=0;verticalLabelPosition=bottom;verticalAlign=top;align=center;html=1;fontSize=12;fontStyle=0;aspect=fixed;pointerEvents=1;shape=mxgraph.aws4.mobile_client;" vertex="1" parent="1">
          <mxGeometry x="188.5" y="280" width="41" height="78" as="geometry" />
        </mxCell>
        <mxCell id="PMLJe2PKNXVGRDKohlsJ-13" style="edgeStyle=orthogonalEdgeStyle;rounded=0;orthogonalLoop=1;jettySize=auto;html=1;" edge="1" parent="1" source="PMLJe2PKNXVGRDKohlsJ-5" target="PMLJe2PKNXVGRDKohlsJ-9">
          <mxGeometry relative="1" as="geometry" />
        </mxCell>
        <mxCell id="PMLJe2PKNXVGRDKohlsJ-15" style="edgeStyle=orthogonalEdgeStyle;rounded=0;orthogonalLoop=1;jettySize=auto;html=1;" edge="1" parent="1" source="PMLJe2PKNXVGRDKohlsJ-5" target="PMLJe2PKNXVGRDKohlsJ-11">
          <mxGeometry relative="1" as="geometry" />
        </mxCell>
        <mxCell id="PMLJe2PKNXVGRDKohlsJ-16" style="edgeStyle=orthogonalEdgeStyle;rounded=0;orthogonalLoop=1;jettySize=auto;html=1;" edge="1" parent="1" source="PMLJe2PKNXVGRDKohlsJ-5" target="PMLJe2PKNXVGRDKohlsJ-12">
          <mxGeometry relative="1" as="geometry">
            <Array as="points">
              <mxPoint x="530" y="239" />
              <mxPoint x="530" y="275" />
            </Array>
          </mxGeometry>
        </mxCell>
        <mxCell id="PMLJe2PKNXVGRDKohlsJ-5" value="API Gateway" style="sketch=0;outlineConnect=0;fontColor=#232F3E;gradientColor=none;fillColor=#232F3D;strokeColor=none;dashed=0;verticalLabelPosition=bottom;verticalAlign=top;align=center;html=1;fontSize=12;fontStyle=0;aspect=fixed;pointerEvents=1;shape=mxgraph.aws4.traditional_server;" vertex="1" parent="1">
          <mxGeometry x="369" y="200" width="45" height="78" as="geometry" />
        </mxCell>
        <mxCell id="PMLJe2PKNXVGRDKohlsJ-18" style="edgeStyle=orthogonalEdgeStyle;rounded=0;orthogonalLoop=1;jettySize=auto;html=1;" edge="1" parent="1" source="PMLJe2PKNXVGRDKohlsJ-9" target="PMLJe2PKNXVGRDKohlsJ-17">
          <mxGeometry relative="1" as="geometry">
            <Array as="points">
              <mxPoint x="496" y="120" />
              <mxPoint x="720" y="120" />
            </Array>
          </mxGeometry>
        </mxCell>
        <mxCell id="PMLJe2PKNXVGRDKohlsJ-9" value="Collection Service" style="sketch=0;outlineConnect=0;fontColor=#232F3E;gradientColor=none;fillColor=#232F3D;strokeColor=none;dashed=0;verticalLabelPosition=bottom;verticalAlign=top;align=center;html=1;fontSize=12;fontStyle=0;aspect=fixed;pointerEvents=1;shape=mxgraph.aws4.client;" vertex="1" parent="1">
          <mxGeometry x="470" y="150" width="51.32" height="50" as="geometry" />
        </mxCell>
        <mxCell id="PMLJe2PKNXVGRDKohlsJ-22" style="edgeStyle=orthogonalEdgeStyle;rounded=0;orthogonalLoop=1;jettySize=auto;html=1;" edge="1" parent="1" source="PMLJe2PKNXVGRDKohlsJ-10">
          <mxGeometry relative="1" as="geometry">
            <mxPoint x="460" y="400" as="targetPoint" />
            <Array as="points">
              <mxPoint x="440" y="275" />
              <mxPoint x="440" y="400" />
              <mxPoint x="460" y="400" />
            </Array>
          </mxGeometry>
        </mxCell>
        <mxCell id="PMLJe2PKNXVGRDKohlsJ-10" value="Game Service" style="sketch=0;outlineConnect=0;fontColor=#232F3E;gradientColor=none;fillColor=#232F3D;strokeColor=none;dashed=0;verticalLabelPosition=bottom;verticalAlign=top;align=center;html=1;fontSize=12;fontStyle=0;aspect=fixed;pointerEvents=1;shape=mxgraph.aws4.client;" vertex="1" parent="1">
          <mxGeometry x="470" y="250" width="51.32" height="50" as="geometry" />
        </mxCell>
        <mxCell id="PMLJe2PKNXVGRDKohlsJ-19" style="edgeStyle=orthogonalEdgeStyle;rounded=0;orthogonalLoop=1;jettySize=auto;html=1;" edge="1" parent="1" source="PMLJe2PKNXVGRDKohlsJ-11" target="PMLJe2PKNXVGRDKohlsJ-17">
          <mxGeometry relative="1" as="geometry" />
        </mxCell>
        <mxCell id="PMLJe2PKNXVGRDKohlsJ-11" value="User Service" style="sketch=0;outlineConnect=0;fontColor=#232F3E;gradientColor=none;fillColor=#232F3D;strokeColor=none;dashed=0;verticalLabelPosition=bottom;verticalAlign=top;align=center;html=1;fontSize=12;fontStyle=0;aspect=fixed;pointerEvents=1;shape=mxgraph.aws4.client;" vertex="1" parent="1">
          <mxGeometry x="580" y="150" width="51.32" height="50" as="geometry" />
        </mxCell>
        <mxCell id="PMLJe2PKNXVGRDKohlsJ-20" style="edgeStyle=orthogonalEdgeStyle;rounded=0;orthogonalLoop=1;jettySize=auto;html=1;entryX=1.017;entryY=0.567;entryDx=0;entryDy=0;entryPerimeter=0;" edge="1" parent="1" source="PMLJe2PKNXVGRDKohlsJ-12" target="PMLJe2PKNXVGRDKohlsJ-17">
          <mxGeometry relative="1" as="geometry" />
        </mxCell>
        <mxCell id="PMLJe2PKNXVGRDKohlsJ-12" value="\Evaluation Service" style="sketch=0;outlineConnect=0;fontColor=#232F3E;gradientColor=none;fillColor=#232F3D;strokeColor=none;dashed=0;verticalLabelPosition=bottom;verticalAlign=top;align=center;html=1;fontSize=12;fontStyle=0;aspect=fixed;pointerEvents=1;shape=mxgraph.aws4.client;" vertex="1" parent="1">
          <mxGeometry x="580" y="250" width="51.32" height="50" as="geometry" />
        </mxCell>
        <mxCell id="PMLJe2PKNXVGRDKohlsJ-14" style="edgeStyle=orthogonalEdgeStyle;rounded=0;orthogonalLoop=1;jettySize=auto;html=1;" edge="1" parent="1" source="PMLJe2PKNXVGRDKohlsJ-5">
          <mxGeometry relative="1" as="geometry">
            <mxPoint x="470" y="270" as="targetPoint" />
          </mxGeometry>
        </mxCell>
        <mxCell id="PMLJe2PKNXVGRDKohlsJ-17" value="MongoDB Atlas" style="sketch=0;outlineConnect=0;fontColor=#232F3E;gradientColor=none;fillColor=#232F3D;strokeColor=none;dashed=0;verticalLabelPosition=bottom;verticalAlign=top;align=center;html=1;fontSize=12;fontStyle=0;aspect=fixed;pointerEvents=1;shape=mxgraph.aws4.generic_database;" vertex="1" parent="1">
          <mxGeometry x="690" y="136" width="59" height="78" as="geometry" />
        </mxCell>
        <mxCell id="PMLJe2PKNXVGRDKohlsJ-21" value="RAWG API" style="sketch=0;outlineConnect=0;fontColor=#232F3E;gradientColor=none;fillColor=#232F3D;strokeColor=none;dashed=0;verticalLabelPosition=bottom;verticalAlign=top;align=center;html=1;fontSize=12;fontStyle=0;aspect=fixed;pointerEvents=1;shape=mxgraph.aws4.cold_storage;" vertex="1" parent="1">
          <mxGeometry x="460.16" y="350" width="71" height="78" as="geometry" />
        </mxCell>
      </root>
    </mxGraphModel>
  </diagram>
</mxfile>
